<svg xmlns="http://www.w3.org/2000/svg" viewBox="0 0 447.7 486.6"><defs><style>.cls-1,.cls-2{stroke:#000;stroke-miterlimit:10;}.cls-1{stroke-width:2px;}.cls-2{fill:none;stroke-linecap:round;stroke-width:12px;}</style></defs><title>communication-icon</title><g id="Layer_4" data-name="Layer 4"><path class="cls-1" d="M168.17,384.31h5.58l18,85.52a4.71,4.71,0,0,0,4.6,3.73h42.27a14.1,14.1,0,0,0,.94-28.16l-7.45-32.91h11.21a4.69,4.69,0,0,0,4.7-4.69V386.27a175.1,175.1,0,0,1,64.91,42.94L328,445a16.44,16.44,0,0,0,32.75-2V369.5l24.26-4a4.7,4.7,0,0,0,3.92-4.64V323.25a4.7,4.7,0,0,0-3.92-4.64l-24.26-4V241.05A16.44,16.44,0,0,0,328,239l-15.07,15.83a175,175,0,0,1-70.39,44.9H168.17a23.52,23.52,0,0,0-23.49,23.49v37.57A23.51,23.51,0,0,0,168.17,384.31Zm67.64,70.46h2.81a4.7,4.7,0,1,1,0,9.39H200.16l-16.81-79.85h32.73l15.15,66.8A4.69,4.69,0,0,0,235.81,454.77Zm2.81-51.67H230l-4.26-18.79h12.9Zm140.92-75.87v29.61L360.75,360V324.09ZM344.31,234a7.07,7.07,0,0,1,7.05,7.05V443a7.05,7.05,0,0,1-14.1,0v-202A7.07,7.07,0,0,1,344.31,234Zm-24.58,27.34,8.14-8.55V431.28l-8.14-8.55A184.45,184.45,0,0,0,248,376.26V307.81A184.45,184.45,0,0,0,319.73,261.34ZM238.62,374.92H182.26V309.16h56.36Zm-84.54-51.67a14.09,14.09,0,0,1,14.09-14.09h4.69v65.76h-4.69a14.11,14.11,0,0,1-14.09-14.1Z" transform="translate(-82.15 -131.64)"/><rect class="cls-1" x="109.5" y="210.39" width="9.39" height="18.79"/><rect class="cls-1" x="128.29" y="210.39" width="9.39" height="18.79"/><rect class="cls-1" x="398.05" y="311.97" width="28.74" height="9.39" transform="translate(-136.24 -44.62) rotate(-11.31)"/><rect class="cls-1" x="382.12" y="217.56" width="46.5" height="9.39" transform="translate(-120.58 220.08) rotate(-45)"/><rect class="cls-1" x="391.14" y="262.19" width="37.87" height="9.39" transform="translate(-160.53 106.96) rotate(-29.74)"/><rect class="cls-1" x="407.72" y="353.97" width="9.39" height="28.74" transform="translate(-111.79 568.87) rotate(-78.69)"/><rect class="cls-1" x="400.68" y="439.51" width="9.39" height="46.5" transform="translate(-290.64 290.56) rotate(-45)"/><rect class="cls-1" x="405.37" y="399.19" width="9.39" height="37.87" transform="translate(-238.57 435.07) rotate(-60.26)"/><path class="cls-1" d="M316.79,289.81l-6-7.21c-2.23,1.87-4.54,3.72-6.85,5.48l5.69,7.47C312,293.7,314.45,291.77,316.79,289.81Z" transform="translate(-82.15 -131.64)"/><path class="cls-1" d="M301.89,301.16l-5.34-7.73a194.66,194.66,0,0,1-36.23,19.72l3.58,8.69A204,204,0,0,0,301.89,301.16Z" transform="translate(-82.15 -131.64)"/></g><g id="Layer_3" data-name="Layer 3"><path class="cls-2" d="M88.15,260A231.48,231.48,0,0,1,292.34,137.64c127.86,0,231.51,103.66,231.51,231.52a233,233,0,0,1-4.7,46.66c-11.37,67.3-107.45,144-107.45,144l-.89-56.35-107.63,83.4-2.4-70.27-127.51,87.5,30.61-112.68" transform="translate(-82.15 -131.64)"/></g></svg>