<svg id="Layer_2" data-name="Layer 2" xmlns="http://www.w3.org/2000/svg" viewBox="0 0 447.7 486.6"><defs><style>.cls-1{fill:none;stroke:#000;stroke-linecap:round;stroke-miterlimit:10;stroke-width:12px;}</style></defs><title>ecommerce-icon</title><path d="M440.79,422.85H260.48a23.31,23.31,0,0,1-22.8-18.74l-.72-3.78H397.05a6.25,6.25,0,0,0,6.25-4.91l25-112.45a6.27,6.27,0,0,0-6.25-7.6h-25a6.25,6.25,0,0,0,0,12.5h17.21l-22.21,100H234.62l-14.56-78.34h8.62a6.25,6.25,0,1,0,0-12.5h-11L216,287.87H365.81a6.25,6.25,0,1,0,0-12.5H213.69l-13.44-73a6.25,6.25,0,0,0-6.24-5.09H165.89a6.25,6.25,0,0,0,0,12.49h22.87L205,297H190.88a6.25,6.25,0,0,0,0,12.5h16.47l7,37.48H178.39a6.25,6.25,0,0,0,0,12.5h38.26l8.78,47.1a35.83,35.83,0,0,0,35.05,28.8H440.79a6.25,6.25,0,0,0,0-12.49Z" transform="translate(-82.15 -131.64)"/><path d="M277.76,436.31A24.18,24.18,0,1,0,301.43,461v-.49A24,24,0,0,0,277.76,436.31Zm0,35.86A11.68,11.68,0,1,1,288.93,460c0,.16,0,.33,0,.49a11.44,11.44,0,0,1-11.18,11.68Z" transform="translate(-82.15 -131.64)"/><path d="M392.27,436.31A24.18,24.18,0,1,0,416,461v-.49A24,24,0,0,0,392.27,436.31Zm0,35.86A11.68,11.68,0,1,1,403.45,460c0,.16,0,.33,0,.49A11.46,11.46,0,0,1,392.27,472.17Z" transform="translate(-82.15 -131.64)"/><path d="M203.69,403.2h-37.8a6.25,6.25,0,0,0,0,12.49h37.8a6.25,6.25,0,1,0,0-12.49Z" transform="translate(-82.15 -131.64)"/><path class="cls-1" d="M88.15,260A231.48,231.48,0,0,1,292.34,137.64c127.86,0,231.51,103.66,231.51,231.52a233,233,0,0,1-4.7,46.66c-11.37,67.3-107.45,144-107.45,144l-.89-56.35-107.63,83.4-2.4-70.27-127.51,87.5,30.61-112.68" transform="translate(-82.15 -131.64)"/></svg>