<svg xmlns="http://www.w3.org/2000/svg" viewBox="0 0 447.7 486.6"><defs><style>.cls-1{fill:none;stroke:#000;stroke-linecap:round;stroke-miterlimit:10;stroke-width:12px;}</style></defs><title>marketing-icon</title><g id="Layer_5" data-name="Layer 5"><path d="M426,217a23.35,23.35,0,0,0-23.23,23.26,23.09,23.09,0,0,0,4,13.09l-32.26,32.31a23.1,23.1,0,0,0-14.93-5.51,23.41,23.41,0,0,0-20,11.53L323,285.42c.06-.65.11-1.32.11-2a23.24,23.24,0,1,0-44.71,8.63l-33.08,27.11a23.06,23.06,0,0,0-15.15-5.82,23.27,23.27,0,1,0,23.24,23.27,23,23,0,0,0-.83-6.13l34-27.94a23.2,23.2,0,0,0,31.53-4.78l18.36,6.85a23.19,23.19,0,0,0,46.36-1.24,22.92,22.92,0,0,0-.93-6.34l35.16-35.21A23,23,0,0,0,426,263.5,23.27,23.27,0,0,0,426,217Zm0,13.29a10,10,0,1,1-10,10A9.87,9.87,0,0,1,426,230.26ZM299.86,273.47a10,10,0,1,1-9.95,10A9.87,9.87,0,0,1,299.86,273.47Zm59.75,19.95a10,10,0,1,1-10,10,10,10,0,0,1,.58-3.33A9.86,9.86,0,0,1,359.61,293.42Zm52.48,10a6.87,6.87,0,0,0-6,6.64V469.58a6.9,6.9,0,0,0,6.63,6.65H445.9a6.9,6.9,0,0,0,6.64-6.65V310a6.9,6.9,0,0,0-6.64-6.64Zm7.26,13.29h19.92V462.93H419.35Zm-189.19,10a10,10,0,1,1-10,10A9.87,9.87,0,0,1,230.16,326.65Zm49.17,20a6.88,6.88,0,0,0-6,6.64V472.9a6.9,6.9,0,0,0,6.64,6.65h33.19a6.9,6.9,0,0,0,6.64-6.65V353.24a6.9,6.9,0,0,0-6.64-6.64Zm7.26,13.29H306.5V466.26H286.59Zm59.12,3.33a6.89,6.89,0,0,0-6,6.64v99.72a6.91,6.91,0,0,0,6.64,6.65h33.19a6.9,6.9,0,0,0,6.64-6.65V369.86a6.9,6.9,0,0,0-6.64-6.64ZM353,376.51h19.91v86.42H353Zm-136.71,10a6.88,6.88,0,0,0-6,6.65V472.9a6.9,6.9,0,0,0,6.64,6.65h33.19a6.92,6.92,0,0,0,6.64-6.65V393.13a6.92,6.92,0,0,0-6.64-6.65Zm7.26,13.3h19.92v66.48H223.52ZM193,496.17a6.66,6.66,0,0,0,.62,13.3H465.82a6.65,6.65,0,1,0,0-13.3Z" transform="translate(-120.88 -170.59)"/></g><g id="Layer_3" data-name="Layer 3"><path class="cls-1" d="M126.88,298.9A231.48,231.48,0,0,1,331.07,176.59c127.86,0,231.51,103.66,231.51,231.52a232.78,232.78,0,0,1-4.7,46.65c-11.37,67.31-107.45,144-107.45,144l-.89-56.35-107.63,83.4-2.4-70.27L212,643l30.61-112.68" transform="translate(-120.88 -170.59)"/></g></svg>